<?xml version="1.0" standalone="no"?>
<!DOCTYPE svg PUBLIC "-//W3C//DTD SVG 20010904//EN"
 "http://www.w3.org/TR/2001/REC-SVG-20010904/DTD/svg10.dtd">
<svg version="1.0" xmlns="http://www.w3.org/2000/svg"
 width="512.000000pt" height="512.000000pt" viewBox="0 0 512.000000 512.000000"
 preserveAspectRatio="xMidYMid meet">
<metadata>
Created by potrace 1.14, written by Peter Selinger 2001-2017
</metadata>
<g transform="translate(0.000000,512.000000) scale(0.100000,-0.100000)"
fill="#000000" stroke="none">
<path d="M874 5106 c-108 -20 -181 -44 -279 -91 -275 -131 -479 -379 -563
-683 l-27 -97 0 -1675 0 -1675 27 -97 c103 -373 383 -653 756 -756 l97 -27
1675 0 1675 0 97 27 c373 103 653 383 756 756 l27 97 0 1675 0 1675 -27 97
c-103 373 -383 653 -756 756 l-97 27 -1645 2 c-1308 1 -1659 -1 -1716 -11z
m1082 -1337 c329 -329 603 -599 609 -599 5 0 278 270 605 600 564 569 597 601
630 600 32 0 59 -24 362 -327 l328 -328 0 -959 c0 -934 -1 -961 -20 -1000 -13
-27 -163 -184 -433 -454 -345 -344 -418 -412 -441 -412 -42 0 -64 17 -76 58
-6 24 -10 337 -10 907 l0 870 -468 -468 c-257 -257 -472 -467 -477 -467 -6 0
-219 209 -475 465 -256 256 -468 465 -472 465 -5 0 -8 -400 -8 -889 0 -884 0
-888 -21 -915 -14 -18 -30 -26 -52 -26 -28 0 -76 45 -444 413 -270 269 -420
426 -433 453 -19 39 -20 65 -20 1005 l1 964 317 317 c174 175 328 321 342 326
13 5 32 7 40 5 9 -3 286 -274 616 -604z"/>
</g>
</svg>
